<?xml version="1.0" encoding="utf-8"?>
<!-- Generator: Adobe Illustrator 26.5.0, SVG Export Plug-In . SVG Version: 6.00 Build 0)  -->
<svg version="1.1" id="圖層_1" xmlns="http://www.w3.org/2000/svg" xmlns:xlink="http://www.w3.org/1999/xlink" x="0px" y="0px"
	 viewBox="0 0 1326 387" style="enable-background:new 0 0 1326 387;" xml:space="preserve">
<style type="text/css">
	.st0{fill:none;}
	.st1{fill:#172E26;}
	.st2{enable-background:new    ;}
</style>
<g id="text-block" transform="translate(1389 64.164)">
	<g id="btn-more" transform="translate(269 335.178)">
		<g id="Rectangle_46">
			<path class="st0" d="M-690-141h54c9.4,0,17,7.6,17,17l0,0c0,9.4-7.6,17-17,17h-54c-9.4,0-17-7.6-17-17l0,0
				C-707-133.4-699.4-141-690-141z"/>
			<path class="st1" d="M-636-107h-54c-9.4,0-17-7.6-17-17s7.6-17,17-17h54c9.4,0,17,7.6,17,17S-626.6-107-636-107z M-690-140
				c-8.8,0-16,7.2-16,16s7.2,16,16,16h54c8.8,0,16-7.2,16-16s-7.2-16-16-16H-690z"/>
		</g>
		<g class="st2">
			<path class="st1" d="M-678.2-128c-1.3,1.4-3.1,2.9-4.8,3.9v5.4c0,1-0.2,1.4-0.9,1.7c-0.7,0.3-1.7,0.3-3,0.3
				c-0.1-0.5-0.4-1.2-0.7-1.7c1,0,2.1,0,2.5,0c0.3,0,0.4-0.1,0.4-0.3v-6.2c1.1-0.6,2.3-1.5,3.2-2.3h-8.1v-1.6h9.7l0.4-0.1
				L-678.2-128z"/>
			<path class="st1" d="M-663.4-119.1h-2.4v2.3h-1.6v-2.3h-2.6v-1.4h2.6v-1.3h-1.2c-0.2,0.4-0.4,0.8-0.6,1.1
				c-0.2-0.2-0.7-0.4-1.1-0.6v3c0,0.7-0.1,1.1-0.5,1.3c-0.4,0.2-1,0.3-1.9,0.3c0-0.4-0.3-1-0.5-1.4c0.6,0,1.1,0,1.3,0
				s0.2-0.1,0.2-0.2v-2h-2.8c-0.1,1.3-0.5,2.7-1.1,3.7c-0.2-0.2-0.8-0.6-1.1-0.7c0.9-1.4,1-3.5,1-5.1v-2.1c-0.3-0.3-0.8-0.7-1.1-0.9
				c1-1,1.7-2.7,2.1-4.3l1.5,0.3c-0.1,0.3-0.2,0.7-0.3,1h1.3l0.2-0.1l1,0.6c-0.2,0.5-0.5,1.2-0.8,1.8h1.6v0.9
				c1.2-0.5,1.6-1.3,1.8-2.4h-1.6v-1.4h6.2c0,0,0,0.4,0,0.5c-0.1,2.2-0.2,3.2-0.5,3.6c-0.2,0.3-0.5,0.4-0.9,0.5
				c-0.3,0-0.9,0.1-1.4,0c0-0.4-0.2-1-0.4-1.3c0.4,0,0.8,0.1,1,0.1c0.2,0,0.3,0,0.4-0.2c0.1-0.2,0.2-0.6,0.3-1.8h-1.6
				c-0.2,1.5-0.8,2.6-2.2,3.4l1.2,0.3c-0.1,0.3-0.1,0.6-0.2,0.9h0.7v-1.3h1.6v1.3h2.1v1.4h-2.1v1.3h2.4V-119.1z M-673.9-127.3
				c-0.2,0.3-0.3,0.7-0.5,1h1.2c0.1-0.3,0.3-0.7,0.4-1H-673.9z M-674.3-122.6c0,0.3,0,0.6,0,0.9h0.8v-1.2h-0.8V-122.6z M-674.3-124
				h0.8v-1.1h-0.8V-124z M-672.4-124h0.8v-1.1h-0.8V-124z M-671.6-121.7v-1.2h-0.8v1.2H-671.6z M-670.2-121.6c0.5-0.7,0.8-1.7,1-2.7
				c-0.1,0-0.2,0.1-0.3,0.1c-0.1-0.3-0.4-0.7-0.7-1V-121.6z"/>
			<path class="st1" d="M-659.7-127.6h2.4v1.3h-5.3v-1.3h2.4c-0.2-0.5-0.6-1.2-0.9-1.8l1.2-0.6c0.4,0.6,0.8,1.3,1,1.9L-659.7-127.6z
				 M-657.6-117.6h-3v0.6h-1.4v-4.8h4.3V-117.6z M-657.7-124.3h-4.2v-1.3h4.2V-124.3z M-661.9-123.7h4.2v1.3h-4.2V-123.7z
				 M-660.6-120.5v1.6h1.6v-1.6H-660.6z M-649.5-119.6h-3v2.8h-1.6v-2.8h-3v-1.5h3v-1.5h-2.4v-1.5h2.4v-1.4h-2.8v-1.5h1.5
				c-0.3-0.6-0.7-1.4-1.1-2.1l1.4-0.6c0.5,0.7,1.1,1.7,1.3,2.3l-0.7,0.3h2.8l-0.8-0.3c0.4-0.7,0.9-1.7,1.1-2.4l1.8,0.6
				c-0.5,0.8-1,1.6-1.4,2.1h1.5v1.5h-2.8v1.4h2.4v1.5h-2.4v1.5h3V-119.6z"/>
			<path class="st1" d="M-648.7-123.4c0.3-0.9,0.6-2.5,0.7-3.7l1.3,0.2c-0.1,1.2-0.3,2.9-0.7,3.9L-648.7-123.4z M-635.5-125.4v1.2
				h-8.6v-1.2l-0.3,0.2c-0.1-0.4-0.3-1-0.6-1.5v9.9h-1.5v-13.1h1.5v2.2l0.7-0.3c0.3,0.7,0.8,1.6,1,2.2l-0.8,0.4h3.4v-0.6h-2.6v-1.1
				h2.6v-0.6h-3.1v-1.2h3.1v-1h1.7v1h3.1v1.2h-3.1v0.6h2.6v1.1h-2.6v0.6H-635.5z M-636.3-118.4c0,0.7-0.1,1.1-0.7,1.3
				c-0.5,0.2-1.2,0.2-2.1,0.2c-0.1-0.4-0.3-1-0.4-1.4c0.6,0,1.2,0,1.4,0c0.2,0,0.3-0.1,0.3-0.2v-0.5h-4.2c-0.2,0.8-0.5,1.6-1,2.2
				c-0.2-0.3-0.9-0.9-1.2-1.1c0.8-1,0.9-2.3,0.9-3.4v-2.5h7.1V-118.4z M-637.9-120v-0.6h-4c0,0.2,0,0.4,0,0.6H-637.9z M-641.8-122.6
				v0.7h4v-0.7H-641.8z"/>
		</g>
	</g>
	<g id="Group_3160" transform="translate(126.291 -85.347)">
		<g id="Group_3161">
			<path id="Path_39764" class="st1" d="M-702.7,172.8l-3.1-3.7c2.8-3.3,4.9-7.2,6.2-11.3l4.2,0.9c-0.3,0.9-0.6,1.7-0.9,2.5h9.5
				v-2.9h4.8v2.9h14.3v4.2H-682v3.2h12.7v4H-682v3.2h16.4v4.2h-38.5v-4.2h17.3v-3.2h-12v-4h12v-3.2h-11.3
				C-699.3,168.1-700.9,170.6-702.7,172.8 M-670.3,157.3h-30v-16.8h30V157.3z M-675,144.5h-20.7v2.6h20.7V144.5z M-675,150.7h-20.7
				v2.6h20.7V150.7z"/>
			<path id="Path_39765" class="st1" d="M-623,161.5h-29.8v11.3c0,1.5,0.8,2.3,2.5,2.3h23.3c1,0,1.8-0.7,2.1-1.6
				c0.3-0.7,0.6-3.1,0.9-7l4.6,1.4c-0.2,2.6-0.6,5.1-1.2,7.7c-0.4,2.3-2.5,4-4.9,4.1h-26.8c-3.6,0-5.4-1.6-5.4-4.9v-33.4h34.6V161.5
				z M-652.8,157h10.2v-11.2h-10.2V157z M-627.6,145.8h-10.2V157h10.2V145.8z"/>
			<path id="Path_39766" class="st1" d="M-591.3,139.2v4.3h17.1v4.6h-17.1v3.7h12.1v14.1h-7.4v8.3c0,1,0.5,1.5,1.7,1.5h4.9
				c0.5,0,1.1-0.2,1.5-0.5c0.5-0.4,0.9-1.8,1-4.3l4.5,1.4c-0.5,3.9-1.1,6.2-1.9,6.8c-1.2,0.7-2.5,1.1-3.9,1.1h-7.4
				c-3.3,0-5-1.8-5-5.2v-9.2h-6.1c-0.5,4-1.6,6.9-3.2,8.9c-2.2,2.4-5.7,4.6-10.7,6.5l-3-3.9c4.4-1.4,7.5-2.9,9.3-4.8
				c1.6-1.9,2.6-4.2,2.8-6.6h-6.1v-14.1h12.2V148h-17.1v-4.6h17.1v-4.3H-591.3z M-583.8,156.1h-19.9v5.3h19.9V156.1z"/>
			<path id="Path_39767" class="st1" d="M-554.7,141.5c-2.4,4.9-6.5,9.4-12.3,13.4l-1.4-4.7c4-2.7,7.2-6.4,9.5-10.7L-554.7,141.5z
				 M-552.7,151.9c-1.2,2.4-2.7,4.7-4.5,6.8V181h-4.7v-17.7c-1.5,1.3-3.2,2.5-4.9,3.7l-1.4-4.6c4.7-3.2,8.6-7.5,11.2-12.5
				L-552.7,151.9z M-527,152.8v4.6h-6.9v18.9c0,3-1.7,4.5-5,4.5h-6.5l-1-4.6c2.1,0.2,4.1,0.3,6,0.3c1.2,0,1.9-0.5,1.9-1.4v-17.7
				h-13.5v-4.6H-527z M-529,146.3h-22.2v-4.6h22.2V146.3z"/>
			<path id="Path_39768" class="st1" d="M-490.6,139.4v8.1h8.9c0,15.2-0.2,24.6-0.6,28.2c-0.5,3.3-2.5,5-6.1,5
				c-0.8,0-2.3-0.1-4.3-0.2l-1.1-4.1c1.8,0.1,3.4,0.2,4.7,0.2c1.4,0,2.3-1,2.5-2.9c0.3-2.1,0.4-9.3,0.5-21.8h-4.5v1.5
				c-0.1,12.6-2.8,21.8-8.1,27.6l-2.5-2.2c-6,0.7-12.8,1.3-20.3,1.8l-0.6-4.2c3.2-0.2,6.3-0.4,9.2-0.5v-2.8h-7.6v-3.8h7.6V167h-7.8
				v-14.6h7.8v-1.9h-8.7v-3.9h8.7v-2c-2.3,0.1-4.8,0.2-7.3,0.2l-1.3-3.7c6.4,0.1,12.9-0.5,19.2-1.8l2.1,3.5
				c-2.7,0.7-5.5,1.1-8.3,1.4v2.3h8.5v3.9h-8.5v1.9h7.9V167h-7.9v2.2h7.7v3.8h-7.7v2.5c2.7-0.3,5.3-0.5,7.6-0.8v2
				c3.9-5.2,5.9-13,6-23.3v-1.5h-3.9v-4.3h3.9v-8.1H-490.6z M-512.8,155.7h-3.8v2.4h3.8V155.7z M-512.8,161.2h-3.8v2.3h3.8V161.2z
				 M-508.9,158.1h3.9v-2.4h-3.9V158.1z M-505,161.2h-3.9v2.3h3.9V161.2z"/>
			<path id="Path_39769" class="st1" d="M-467.8,149.8c1.4-1.6,2.6-3.2,3.7-5h-10.4v-4.1h15.2v3.5c-1.7,3-3.7,5.8-6,8.4
				c0.6,0.7,1.2,1.4,1.6,2h6.1v2.8c-0.5,2.8-1.3,5.6-2.4,8.3l-3.7-1.5c0.8-1.7,1.3-3.5,1.8-5.3h-3.5v17.5c0,2.8-1.4,4.3-4,4.3h-4.4
				l-0.9-4.2c1.3,0.2,2.6,0.3,3.8,0.3c0.7,0,1-0.5,1-1.4V159h-6.2v-4.3h7.4c-1.6-1.8-3.6-3.8-5.7-5.9l3.4-2.2
				C-469.8,147.7-468.7,148.8-467.8,149.8 M-449.3,147.5c0.3-0.9,0.6-1.8,0.9-2.7h-8.8v-4.1h22.6v4.1h-9.1c-0.3,0.9-0.5,1.8-0.9,2.7
				h8.4v24.9h-4.9c2.6,1.5,5,3.3,7.3,5.3l-3,3c-2.2-2.3-4.7-4.3-7.4-5.9l2.5-2.4h-8.3l2.7,2.3c-2.6,2.5-5.5,4.6-8.8,6.2l-2.6-3.3
				c2.9-1.3,5.6-3.1,8-5.2h-5v-24.9H-449.3z M-440.7,151.3h-10.6v3.2h10.6L-440.7,151.3z M-440.7,158.1h-10.6v3.4h10.6L-440.7,158.1
				z M-440.7,165.1h-10.6v3.5h10.6L-440.7,165.1z"/>
			<path id="Path_39770" class="st1" d="M-424.7,172c-0.1,3-0.5,6-1.3,9l-3.8-1.2c0.9-2.7,1.4-5.4,1.5-8.3L-424.7,172z
				 M-421.1,159.8v-2.2h-7.4v-17h18.9v17h-7.4v2.2h6.7v3.7h-6.7v2.2h7.7v4.2h-19.6v-4.2h7.8v-2.2h-6.8v-3.7H-421.1z M-420.8,144.1
				h-4v2.3l2.3-0.7c0.7,2.1,1.2,4.3,1.6,6.5l-2.4,0.6c-0.4-2.1-0.9-4.1-1.4-6v7.3h4L-420.8,144.1z M-419.5,180l-3.8,0.5
				c0-3.5-0.1-6.3-0.3-8.2l3.4-0.5C-419.8,174.6-419.5,177.3-419.5,180 M-413.8,179.1l-3.7,0.9c-0.3-2.9-0.7-5.4-1.2-7.6l3.3-0.7
				C-414.8,173.9-414.3,176.4-413.8,179.1 M-413.3,144.1h-4.1v10h4.1V144.1z M-413.6,146c-0.2,2.3-0.6,4.7-1.2,6.9l-2.4-0.9
				c0.6-2.2,0.9-4.5,1.1-6.8L-413.6,146z M-408.8,178l-3.3,1.2c-0.5-2.5-1.1-4.9-1.8-7.3l3.3-0.9
				C-409.8,173.5-409.2,175.8-408.8,178 M-397,139.5v7.8h9.1v4.3h-9.1v6.9h7.3V181h-4.4v-2.1h-9.1v2.1h-4.4v-22.5h6v-19H-397z
				 M-394.2,162.7h-9.1v11.9h9.1V162.7z"/>
			<path id="Path_39771" class="st1" d="M-377.9,170.5h10.2v5.8h-15.8v-3.1c0-10.3,10.4-14.2,10.4-21.3c0-1.8-0.6-3.3-2.3-3.3
				c-1.8,0-2.6,1.5-2.7,5.1v0.7l-5.6,0v-1.4c0-6.5,3.5-9.3,8.2-9.3c4.8,0,8.3,3.4,8.3,9C-367.2,161.2-375.3,163.7-377.9,170.5"/>
			<path id="Path_39772" class="st1" d="M-362.5,173.5c0-1.7,1.3-3.1,3.1-3.2c1.7,0,3.1,1.3,3.2,3.1c0,1.7-1.3,3.1-3.1,3.2
				c0,0,0,0,0,0c-1.6,0.1-3-1.1-3.1-2.7C-362.5,173.7-362.5,173.6-362.5,173.5"/>
			<path id="Path_39773" class="st1" d="M-333.8,160.3c0,13.9-3.7,16.7-8.7,16.7c-4.9,0-8.7-2.8-8.7-16.7s3.8-16.7,8.7-16.7
				C-337.5,143.6-333.8,146.4-333.8,160.3 M-345.1,160.3c0,10.8,0.9,12.1,2.6,12.1c1.7,0,2.5-1.3,2.5-12.1c0-10.8-0.9-12.1-2.5-12.1
				C-344.3,148.2-345.1,149.5-345.1,160.3"/>
		</g>
		<rect id="Rectangle_1842" x="-705.6" y="201.2" class="st1" width="372" height="1"/>
		<g id="Group_3162" transform="translate(0 -1.5)">
			<path id="Path_39774" class="st1" d="M-703.6,241h6.3c0.1,4.1-0.1,8.1-0.5,12.2c-0.4,2.1-2,3.2-4.9,3.4c-0.9,0-1.8,0-2.7-0.1
				l-0.9-3.4c0.9,0.1,1.9,0.2,2.8,0.2c1.4,0,2.2-0.6,2.4-1.7c0.2-2.4,0.3-4.9,0.3-7.3h-6.5l1-11.3h5.3v-4.7h-6.1v-3.4h9.6v11.3h-5.6
				L-703.6,241z M-676,234.5v12.7h-7.8v1.7h9v3.2h-9v4.7h-3.6v-4.7h-9V249h9v-1.7h-7.7v-12.7L-676,234.5z M-686.4,233.2h-9.3v-8.3
				h9.3L-686.4,233.2z M-689.6,227.6h-3v3h3V227.6z M-687.4,237.6h-4.1v1.8h4.1V237.6z M-687.4,242.3h-4.1v1.9h4.1V242.3z
				 M-675.4,233.2h-9.2v-8.3h9.2L-675.4,233.2z M-683.8,239.4h4.1v-1.8h-4.1V239.4z M-679.6,242.3h-4.1v1.8h4.1V242.3z
				 M-678.5,227.6h-3v3h3V227.6z"/>
			<path id="Path_39775" class="st1" d="M-666.5,231c-0.1,3.4-0.4,6.8-1.1,10.2l-3-0.9c0.7-3.1,1.2-6.3,1.2-9.5L-666.5,231z
				 M-657.9,234.3c0.8-2.6,1.3-5.3,1.5-8.1l3.4,0.5c-0.1,1.2-0.1,2.4-0.3,3.5h3.9v-6.2h3.8v6.2h7.3v3.6h-7.3v7.6h7v3.6h-7v7.2h8.3
				v3.6h-21.9v-3.6h9.8V245h-7.9v-3.6h7.9v-7.6h-4.6c-0.6,2.3-1.5,4.6-2.7,6.7l-2.8-2.5c0.2-0.5,0.4-0.9,0.6-1.3l-1.4,0.4
				c-0.5-2-1.1-4-1.7-6v25.6h-3.7v-32.8h3.7v6.9l2.6-0.8C-658.8,231.4-658.3,232.8-657.9,234.3"/>
			<path id="Path_39776" class="st1" d="M-631.1,241l-1.5-3.4c10.7-1.7,18.9-4.3,24.6-7.9c-1.1-0.9-2.3-1.8-3.6-2.7l2.5-2.4
				c3.3,2.2,6.3,4.7,9.2,7.5l-2.6,2.6c-0.9-0.9-1.8-1.9-2.9-2.9c-3.3,2.2-6.9,4-10.6,5.3h12v19.5h-3.6v-1.3H-623v1.4h-3.6v-16.7
				L-631.1,241z M-621.6,228.1c-2.2,2.7-4.8,4.9-7.7,6.7l-2.2-2.8c2.8-1.7,5.2-3.8,7.3-6.3L-621.6,228.1z M-607.7,240.3H-623v2h15.3
				V240.3z M-607.7,245.2H-623v1.9h15.3V245.2z M-607.7,250H-623v2.1h15.3V250z M-614.9,232.8h-3.7v-9.1h3.7L-614.9,232.8z"/>
			<path id="Path_39777" class="st1" d="M-583.5,253.1h-3.5v-2.2h-3.7v3h-3.6v-27.7h10.8V253.1z M-587,229.6h-3.7v7.2h3.7V229.6z
				 M-587,240.1h-3.7v7.4h3.7V240.1z M-570.6,224v3.2h8v3.4h-8v3.1h6.7v3.4h-17.1v-3.4h6.8v-3.1h-8.2v-3.4h8.2V224L-570.6,224z
				 M-570.2,240.5v-2.4h3.6v2.4h4v3.5h-4v8.6c0,2.6-1.2,4-3.7,4h-4.4l-0.8-3.5c1.3,0.2,2.6,0.2,3.9,0.2c0.9,0,1.4-0.6,1.4-1.6V244
				h-11.5v-3.5L-570.2,240.5z M-574.2,250l-3,2.1c-1.3-1.9-2.7-3.8-4.2-5.5l2.9-1.8C-576.9,246.4-575.5,248.1-574.2,250"/>
			<path id="Union_5" class="st1" d="M-371.9,256.6c-4.5-2.7-9.3-4.9-14.2-6.8l-0.3-0.1l1.4-2.4h-0.8c-0.8,2.3-2.4,4.3-4.5,5.7
				c-2.4,1.6-5.8,2.7-10.3,3.4l-0.2,0l-0.1-0.2c-0.4-1-0.9-2-1.6-2.9l-0.3-0.3l0.4-0.1c3-0.3,5.9-1.1,8.6-2.3
				c1.6-0.7,2.9-1.9,3.8-3.4h-11.1V244h12.3c0.1-0.6,0.2-1.2,0.3-1.9H-402v-3.4h13.8v-2h-10.7v-3.3h10.7v-1.9h-12.7v-3.4h7
				c-0.6-1.2-1.4-2.3-2.2-3.3l-0.2-0.2l3.3-1.3l0.1,0.1c1.2,1.3,2.2,2.7,2.9,4.4l0.1,0.2l-0.4,0.2h7.4c1-1.5,1.9-3,2.7-4.7l0.1-0.2
				l4,1.1l-0.2,0.3c-0.8,1.2-1.6,2.5-2.4,3.5h7v3.4h-12.8v1.9h11.1v3.3h-11.1v2h14.2v3.4h-14.6c-0.1,0.6-0.2,1.3-0.3,1.9h14.1v3.3
				h-12.4c4.5,1.7,8.9,3.6,13.1,6l0.2,0.1l-1.7,3.3L-371.9,256.6z M-531.2,256.5c-0.7-0.8-1.4-1.5-2.2-2.2l-0.3-0.3l0.4-0.1
				c2.7-1,5.2-2.4,7.3-4.3h-3.5v-12.5l-0.1,0.4c-0.8,2.6-1.8,5.6-2.6,7.5l-0.1,0.2l-2.9-0.7l0.1-0.2c0.5-1.3,1.1-2.9,1.5-4.5h-2.5
				v12.8c0,1.6-0.3,2.7-1.6,3.3c-1.1,0.5-2.8,0.6-5.2,0.6h-0.2l0-0.2c-0.2-1.1-0.5-2.1-1-3l-0.2-0.3l0.4,0c0.8,0,1.6,0,2.3,0
				s1.2,0,1.4,0h0c0.4,0,0.4-0.1,0.4-0.3v-12.8h-5.5v-3.4h8c-1.9-1.5-4-2.9-6.2-4l-0.3-0.1l2-2.5l0.2,0.1c1.1,0.5,2.2,1.2,3.3,1.8
				c0.9-0.9,1.8-2,2.6-3h-8.7v-3.3h11.2l0.7-0.2l1.8,1.3v-1.1h18.3v3.3h-7.2c-0.1,0.4-0.3,0.8-0.4,1.2c-0.1,0.4-0.3,0.8-0.4,1.2h6.8
				v18.8h-12l3,1.8l-0.2,0.2c-2.4,2.1-5.1,3.7-8.1,4.9l-0.2,0.1L-531.2,256.5z M-526,246.7h8.7v-2.5h-8.7V246.7z M-526,241.4h8.7
				v-2.5h-8.7V241.4z M-529.5,236.7v-5.9h5.3l0.1-0.6c0.1-0.6,0.2-1.2,0.3-1.9h-7v-1c-1.4,2.2-3,4.2-4.8,6c0.8,0.6,1.6,1.2,2.3,1.9
				l0.1,0.1l-0.7,1h1.6l0.5-0.1L-529.5,236.7z M-526,236.2h8.7v-2.5h-8.7V236.2z M-514.7,256.5c-1.8-1.7-3.8-3.3-6-4.6l-0.3-0.2
				l2.9-1.9l0.1,0.1c2.2,1.3,4.2,2.8,6.2,4.5l0.2,0.2l-3,2.2L-514.7,256.5z M-459.7,256.3c-0.6-1-1.4-1.9-2.3-2.6l-0.3-0.2l0.3-0.2
				c4.1-2.4,6.6-5.9,7.8-11c1.1-4.7,1.2-10.3,1.2-16.9c0-0.5,0-1.1,0-1.6v-0.2h3.8v0.2c0,0.4,0,0.8,0,1.3c0,4-0.1,7.8-0.3,11.2
				c0.4,3.5,1.4,7,2.8,10.2c1.2,2.7,3.2,5,5.8,6.5l0.3,0.2l-0.2,0.2c-0.8,0.8-1.6,1.7-2.1,2.7l-0.1,0.2l-0.2-0.1
				c-1.9-1.2-3.6-2.9-4.9-4.9c-1.2-1.9-2.2-3.9-2.8-6.1c-0.6,2.1-1.6,4.2-2.8,6c-1.5,2.1-3.4,3.9-5.5,5.2l-0.2,0.1L-459.7,256.3z
				 M-467.7,256.5v-13.7c-1.2,2.8-2.7,5.5-4.6,7.8l-0.3,0.3l-0.1-0.4c-0.4-1.1-1-2.2-1.6-3.2l-0.1-0.2l0.1-0.1c2.5-3,4.5-6.4,5.8-10
				h-5.1v-3.5h5.9V229c-1.8,0.3-3.3,0.6-4.6,0.7l-0.2,0l0-0.2c-0.2-0.9-0.5-1.7-0.9-2.5l-0.2-0.3l0.3-0.1c3.9-0.6,7.7-1.5,11.4-2.8
				l0.2-0.1l2.5,2.9l-0.3,0.1c-1.5,0.5-3,1-4.5,1.3v5.3h4.2c-0.3-0.8-0.7-1.6-0.9-2.1l-0.1-0.2l2.9-1.2l0.1,0.2
				c1.3,2.8,2.9,6.6,3.6,8.7l0.1,0.2l-3.1,1.5l-0.1-0.3c-0.5-1.7-1.5-4.3-2.3-6.3v3h-4.5v0.3c0.9,1,3.7,4.3,4.3,5.2l0.1,0.1
				l-2.2,3.1l-0.2-0.4c-0.6-1.2-1.3-2.4-2-3.5v14.7L-467.7,256.5z M-346.8,256.4v-10.6c-1,1.6-2.1,3.2-3.3,4.6
				c-1.3,1.5-2.9,2.9-4.6,4l-0.2,0.1l-0.1-0.2c-0.6-0.9-1.3-1.8-2.2-2.5l-0.3-0.2l0.3-0.2c2-1.2,3.8-2.7,5.3-4.5
				c1.5-1.8,2.8-3.7,3.9-5.8h-6.9v-3.6h8.1v-4.8h-6.8v-3.6h6.8v-5.3h3.8v5.3h7.5v3.6h-7.5v4.8h8.8v3.6h-7.6c1.8,4,4.5,7.5,7.9,10.2
				l0.3,0.2l-0.3,0.2c-0.9,0.8-1.7,1.7-2.4,2.6l-0.1,0.2l-0.2-0.2c-2.6-2.4-4.7-5.3-6.4-8.4v10.5L-346.8,256.4z M-488.5,256.2
				l-0.2,0l0-0.2c-0.1-1.1-0.5-2.2-1-3.2l-0.2-0.4l0.5,0c2.1,0.2,4.1,0.2,5,0.2c0.5,0.1,0.9-0.1,1.2-0.5l0,0c0.9-1,1.4-6.3,1.8-18.7
				h-8.9c-0.8,1.7-1.7,3.3-2.7,4.8l-0.1,0.2l-0.2-0.1c-0.7-0.5-2.1-1.4-2.8-1.9l-0.2-0.1l0.2-0.2c2.3-2.7,4.2-7.3,5.4-12.4l0-0.2
				l3.7,0.7l-0.1,0.2c-0.4,1.7-1,3.6-1.6,5.4h11.3l0,0.2c0,0,0,1.2,0,1.7v0c-0.4,16.2-0.9,20.9-2.2,22.6c-0.7,1.1-1.9,1.7-3.2,1.8
				c-0.7,0.1-1.4,0.1-2.1,0.1C-486.1,256.3-487.1,256.3-488.5,256.2z M-433.6,256.1v-30.3h24v30.1h-4v-2.2h-16.2v2.3L-433.6,256.1z
				 M-429.8,250h16.2v-8.5h-16.2V250z M-429.8,237.7h16.2v-8.2h-16.2V237.7z M-506.5,255.8c-0.9-0.4-1.8-0.7-2.8-0.9l-0.3-0.1
				l0.1-0.3c1.1-2.6,1.8-5.3,2.2-8l0-0.2l3.4,0.7l0,0.2c-0.5,2.9-1.3,5.7-2.3,8.5l-0.1,0.2L-506.5,255.8z M-501.9,254.8
				c-0.1-2.7-0.8-6.7-1-7.8l0-0.2l3-0.7l0,0.2c0.5,2.6,0.9,5.2,1.2,7.8l0,0.2l-3.2,0.9L-501.9,254.8z M-496.6,253.1
				c-0.6-2.3-1.3-4.5-2.1-6.7l-0.1-0.2l2.8-1l0.1,0.2c0.9,2.1,1.7,4.4,2.3,6.6l0,0.2l-3,1.1L-496.6,253.1z M-365.8,250.6v-23.9h10.3
				v21.1h-6.8v2.8H-365.8z M-362.4,244.2h3.3v-13.8h-3.3L-362.4,244.2z M-486.5,247.1c-1.6-2.8-3.7-5.4-6-7.6l-0.2-0.2l2.7-1.9
				l0.1,0.1c2.4,2.2,4.6,4.7,6.3,7.5l0.1,0.2l-2.8,2.2L-486.5,247.1z M-508.3,245.3c-0.1-0.5-0.6-2.1-1.1-3l-0.1-0.3l0.3-0.1
				c0.8-0.2,1.6-0.9,2.8-2.2c1-1,1.9-2.1,2.8-3.2c-3.3,0.4-4.1,0.6-4.5,0.8l-0.3,0.1l-0.1-0.3c-0.3-1-0.6-2-1-2.9l-0.1-0.3l0.3,0
				c0.6-0.1,1.3-0.8,2-1.8l0,0c2.1-2.7,3.8-5.6,5.2-8.6l0.1-0.2l3.5,1.5l-0.1,0.2c-1.6,3-3.4,5.8-5.5,8.4l3.1-0.3
				c1-1.3,1.9-2.8,2.7-4.2l0.1-0.2l3.2,2.1l-0.1,0.2c-2.3,3.5-4.9,6.8-7.8,9.9l4.5-0.6c-0.3-0.8-0.6-1.7-1-2.7l-0.1-0.2l3.1-0.8
				l0.1,0.2c1,2.4,1.8,4.8,2.3,7.4l0,0.2l-3.2,0.9l0-0.2c-0.1-0.5-0.2-1.1-0.4-1.7c-8.4,1.3-9.7,1.7-10.4,2l-0.2,0.1L-508.3,245.3z
				 M-448.4,239.7l0.1-0.3c1.4-2.9,2.6-6,3.4-9.2l0.1-0.2l3.7,0.9l-0.1,0.2c-1.3,3.6-2.8,7.1-3.9,9.2l-0.1,0.2L-448.4,239.7z"/>
		</g>
	</g>
</g>
</svg>
